<svg id="visual" viewBox="0 0 960 540" width="960" height="540" xmlns="http://www.w3.org/2000/svg" xmlns:xlink="http://www.w3.org/1999/xlink" version="1.1"><rect x="0" y="0" width="960" height="540" fill="#005792"></rect><defs><linearGradient id="grad1_0" x1="43.8%" y1="0%" x2="100%" y2="100%"><stop offset="14.444444444444446%" stop-color="#005792" stop-opacity="1"></stop><stop offset="85.55555555555554%" stop-color="#005792" stop-opacity="1"></stop></linearGradient></defs><defs><linearGradient id="grad2_0" x1="0%" y1="0%" x2="56.3%" y2="100%"><stop offset="14.444444444444446%" stop-color="#005792" stop-opacity="1"></stop><stop offset="85.55555555555554%" stop-color="#005792" stop-opacity="1"></stop></linearGradient></defs><g transform="translate(960, 0)"><path d="M0 486C-49.4 441.2 -98.8 396.4 -155.4 375.1C-211.9 353.7 -275.6 355.8 -328.8 328.8C-382 301.8 -424.6 245.6 -449 186C-473.4 126.3 -479.7 63.2 -486 0L0 0Z" fill="#00204A"></path></g><g transform="translate(0, 540)"><path d="M0 -486C66.5 -478.9 133 -471.8 182.5 -440.7C232.1 -409.6 264.8 -354.6 311.1 -311.1C357.5 -267.7 417.6 -235.9 449 -186C480.4 -136.1 483.2 -68 486 0L0 0Z" fill="#00204A"></path></g></svg>