<svg id="visual" viewBox="0 0 540 960" width="540" height="960" xmlns="http://www.w3.org/2000/svg" xmlns:xlink="http://www.w3.org/1999/xlink" version="1.1"><rect x="0" y="0" width="540" height="960" fill="#001220"></rect><path d="M0 642L12.8 635C25.7 628 51.3 614 77 626.5C102.7 639 128.3 678 154 682.3C179.7 686.7 205.3 656.3 231.2 630.5C257 604.7 283 583.3 308.8 576C334.7 568.7 360.3 575.3 386 580.3C411.7 585.3 437.3 588.7 463 585.2C488.7 581.7 514.3 571.3 527.2 566.2L540 561L540 961L527.2 961C514.3 961 488.7 961 463 961C437.3 961 411.7 961 386 961C360.3 961 334.7 961 308.8 961C283 961 257 961 231.2 961C205.3 961 179.7 961 154 961C128.3 961 102.7 961 77 961C51.3 961 25.7 961 12.8 961L0 961Z" fill="#00bbf0"></path><path d="M0 765L12.8 748C25.7 731 51.3 697 77 691.2C102.7 685.3 128.3 707.7 154 721.7C179.7 735.7 205.3 741.3 231.2 725.7C257 710 283 673 308.8 654.7C334.7 636.3 360.3 636.7 386 639.8C411.7 643 437.3 649 463 663.3C488.7 677.7 514.3 700.3 527.2 711.7L540 723L540 961L527.2 961C514.3 961 488.7 961 463 961C437.3 961 411.7 961 386 961C360.3 961 334.7 961 308.8 961C283 961 257 961 231.2 961C205.3 961 179.7 961 154 961C128.3 961 102.7 961 77 961C51.3 961 25.7 961 12.8 961L0 961Z" fill="#5dccf1"></path><path d="M0 814L12.8 813C25.7 812 51.3 810 77 800.3C102.7 790.7 128.3 773.3 154 756.7C179.7 740 205.3 724 231.2 715C257 706 283 704 308.8 718.2C334.7 732.3 360.3 762.7 386 766.3C411.7 770 437.3 747 463 732.8C488.7 718.7 514.3 713.3 527.2 710.7L540 708L540 961L527.2 961C514.3 961 488.7 961 463 961C437.3 961 411.7 961 386 961C360.3 961 334.7 961 308.8 961C283 961 257 961 231.2 961C205.3 961 179.7 961 154 961C128.3 961 102.7 961 77 961C51.3 961 25.7 961 12.8 961L0 961Z" fill="#8bdcf4"></path><path d="M0 834L12.8 837.7C25.7 841.3 51.3 848.7 77 852.3C102.7 856 128.3 856 154 852C179.7 848 205.3 840 231.2 826C257 812 283 792 308.8 797.8C334.7 803.7 360.3 835.3 386 848.8C411.7 862.3 437.3 857.7 463 848.7C488.7 839.7 514.3 826.3 527.2 819.7L540 813L540 961L527.2 961C514.3 961 488.7 961 463 961C437.3 961 411.7 961 386 961C360.3 961 334.7 961 308.8 961C283 961 257 961 231.2 961C205.3 961 179.7 961 154 961C128.3 961 102.7 961 77 961C51.3 961 25.7 961 12.8 961L0 961Z" fill="#b3ebf8"></path><path d="M0 859L12.8 861.2C25.7 863.3 51.3 867.7 77 867.5C102.7 867.3 128.3 862.7 154 869.5C179.7 876.3 205.3 894.7 231.2 896.2C257 897.7 283 882.3 308.8 879.8C334.7 877.3 360.3 887.7 386 890.3C411.7 893 437.3 888 463 880.7C488.7 873.3 514.3 863.7 527.2 858.8L540 854L540 961L527.2 961C514.3 961 488.7 961 463 961C437.3 961 411.7 961 386 961C360.3 961 334.7 961 308.8 961C283 961 257 961 231.2 961C205.3 961 179.7 961 154 961C128.3 961 102.7 961 77 961C51.3 961 25.7 961 12.8 961L0 961Z" fill="#d9faff"></path></svg>