<svg version="1.2" xmlns="http://www.w3.org/2000/svg" viewBox="0 0 1592 560" width="1592" height="560">
	<title>softwareone-logo-blk-svg</title>
	<style>
		.s0 { fill: #ffffff } 
		.s1 { fill: #000000 } 
	</style>
	<path id="Layer" fill-rule="evenodd" class="s0" d="m554.2 333.2c-25.1 131.3-140.7 226.2-274.5 226.2-154.2 0-279.7-125.5-279.7-279.7 0-154.2 125.5-279.7 279.7-279.7 134.1 0 249.4 94.9 274.5 226.2v-210.6h158.9v64.8c44.4-55.7 93.9-80.4 159.7-80.4 115.6 0 187.3 83.7 187.3 219v9.8c21.8-137.5 129.4-228.8 270.5-228.8 155 0 260.8 116.8 260.8 287v35.3h-376.8c11.3 77.1 56.4 121.1 124 121.1 49.5 0 85.1-22.9 96-62.2h149.5c-21.1 106.9-120 178.2-247.6 178.2-143.3 0-254.2-91.6-276.4-228.4v212.8h-161.5v-308.1c0-66.2-32.7-102.9-91.3-102.9-54.9 0-91.2 40.7-91.2 102.9v308.1h-161.9c0 0 0-210.6 0-210.6zm879.4-112.8c-10.2-68.7-49.5-108.7-106.2-108.7-57.1 0-97.1 39.3-110.2 108.7z"/>
	<path id="Layer" fill-rule="evenodd" class="s1" d="m21.7 288.8h20.1c1.2 6.8 5.1 9.7 13 9.7 6.6 0 10.9-3.3 10.9-8.4 0-3.8-2.9-6.2-8.7-7.2l-7.8-1.3c-17.9-3-25.7-9.7-25.7-21.9 0-12.9 12.6-22 30.4-22 18 0 28.8 7.2 31.2 21.2h-19.9c-0.9-5.5-4.9-8.4-11.4-8.4-6.1 0-10.6 3.5-10.6 8.3 0 3.5 2.8 5.5 9.4 6.7l8.4 1.5c17.4 3.1 25 10 25 22.6 0 13.6-12.4 22.7-30.9 22.7-19.9 0-32-8.5-33.4-23.5zm67.6-13.6c0-21.7 15.8-37.5 37.5-37.5 21.6 0 36.9 15.2 36.9 36.9 0 22-15.6 37.7-37.4 37.7-21.8 0-37-15.2-37-37.1zm53.1-0.4c0-13.1-6.2-21.4-16-21.4-9.6 0-15.8 8.4-15.8 21.5 0 13.4 6 21.7 15.8 21.7 9.9 0 16-8.4 16-21.8zm20.1-35h11.6v-6.8c0-15.8 7.2-22.7 23.4-22.7 2.7 0 6 0.2 7.8 0.6v14.9q-1.1-0.1-2.6-0.1c-5.9 0-7.9 1.7-7.9 7v7.1h20.5v-22h20.7v22h32.3l7.5 33.5c1.1 4.8 2.1 9.9 3 14.7 1-5 2.3-10 3.5-14.6l8.7-33.1h17l8.8 33.1c1.1 4.1 2.3 9.3 3.4 13.8 1.2-6.8 1.9-10.1 2.7-13.8l7.5-33.6h20.5l-20 70.4h-19.9l-11.9-45.1-11.6 45.1h-20.5l-15.5-55.7h-15.5v32.1c0 6 2.2 8.1 8.5 8.1 1.8 0 2.8-0.1 4.6-0.4v15.2c-3.4 0.7-7.4 1.1-10.5 1.1-16.7 0-23.3-6.2-23.3-21.9v-34.2h-20.5v55.7h-20.7v-55.7h-11.6c0 0 0-14.7 0-14.7zm184.5 52.2c0-12.7 8.3-19.1 29.5-22.8 11.4-1.9 15.5-4.5 15.5-9.9 0-5.4-4-8.6-10.6-8.6-7 0-11 3.2-11.5 9.3h-19.1c1.5-14.5 12.3-22.3 30.8-22.3 20.3 0 30.4 9.7 30.4 29.6v27.9c0 8.7 0.4 11.2 2.7 15h-19.9c-1-2.4-1.7-5.1-1.9-8.7-5.5 7.1-12.5 10.4-22.2 10.4-14.7 0-23.7-7.5-23.7-19.9zm33.4-12.1c-9.8 2-13.5 4.7-13.5 10.2 0 5.5 3.5 8.6 9.8 8.6 9.5 0 15.4-6 15.4-15.7v-6.5c-3 1.4-5.5 2.1-11.7 3.4zm41.9-40.1h20.5v10.8c4.5-8.1 10.4-12 18.2-12 1 0 2.9 0.2 4.4 0.6v17.2c-1.3-0.4-2.7-0.5-5.5-0.5-10.2 0-16.7 6.5-16.7 16.6v37.7h-20.9zm42.5 35.4c0-22.4 14.7-37.6 36.4-37.6 20.7 0 34.6 15.5 34.6 38.7v3.6h-50.2c1.4 11.7 7.4 18.3 16.7 18.3 6.9 0 11.5-3.3 13-9.3h19.5c-2.8 14-15.9 23.4-32.8 23.4-22.1 0-37.2-15.1-37.2-37.1zm50.4-7.6c-1.3-10.7-6.3-16.4-14.4-16.4-8.1 0-13.1 5.6-14.8 16.4 0 0 29.2 0 29.2 0z"/>
</svg>